<svg width="516" height="516" viewBox="0 0 516 516" fill="none" xmlns="http://www.w3.org/2000/svg">
<rect x="0.501587" y="0.390656" width="514.758" height="514.758" rx="24" fill="#F9F9F9"/>
<mask id="mask0_12_151" style="mask-type:alpha" maskUnits="userSpaceOnUse" x="0" y="0" width="516" height="516">
<rect x="0.501587" y="0.390656" width="514.758" height="514.758" rx="24" fill="#262626"/>
</mask>
<g mask="url(#mask0_12_151)">
<g filter="url(#filter0_d_12_151)">
<path fill-rule="evenodd" clip-rule="evenodd" d="M259.531 241.711C255.886 243.676 252.463 246.198 249.387 249.274C247.153 251.513 245.416 253.768 244.203 255.53C243.418 256.673 242.398 257.634 241.212 258.348C243.181 261.543 245.55 264.561 248.318 267.328C250.838 269.844 253.376 271.798 255.359 273.163C255.661 273.37 255.952 273.592 256.23 273.828C259.875 271.863 263.298 269.341 266.374 266.265C268.609 264.026 270.345 261.771 271.558 260.009C272.343 258.866 273.363 257.906 274.548 257.191C272.579 253.996 270.21 250.978 267.442 248.21C264.922 245.695 262.384 243.74 260.401 242.375C260.099 242.168 259.809 241.946 259.531 241.711ZM261.158 323.832C229.99 332.836 195.144 324.945 170.772 300.708C170.7 300.641 170.621 300.563 170.548 300.49L158.189 288.131L152.795 293.526C133.711 312.609 133.113 343.683 152.008 362.953C171.091 382.413 202.455 382.529 221.684 363.3L261.158 323.832ZM120.472 248.808C94.3727 212.872 97.5165 162.16 129.893 129.784C165.102 94.5693 213.995 85.9165 249.695 119.581L255.557 113.719C295.915 73.3605 361.576 73.366 401.929 113.719C442.287 154.071 442.287 219.739 401.928 260.09L395.288 266.73C421.388 302.666 418.244 353.379 385.868 385.755C350.659 420.97 301.768 429.62 266.069 395.955L260.204 401.82C219.846 442.178 154.185 442.173 113.832 401.82C73.4738 361.468 73.4738 295.8 113.832 255.448L120.472 248.808ZM300.354 361.67C316.716 375.658 335.015 367.838 351.335 351.836C368.626 334.88 368.728 307.014 351.644 289.929L335.939 274.222C338.373 303.506 328.352 333.542 306.207 355.81C306.133 355.892 306.044 355.98 305.962 356.062L300.354 361.67ZM357.57 227.408L345.212 215.049L345.212 215.049C345.139 214.977 345.061 214.898 344.988 214.832C320.616 190.594 285.769 182.704 254.6 191.708L294.076 152.238C313.305 133.01 344.669 133.125 363.752 152.586C382.647 171.856 382.05 202.929 362.965 222.013L357.57 227.408ZM215.41 153.865C199.048 139.878 180.746 147.701 164.426 163.703C147.136 180.658 147.033 208.525 164.117 225.61L179.822 241.316C177.389 212.033 187.409 181.997 209.553 159.729C209.594 159.685 209.639 159.638 209.684 159.592C209.722 159.553 209.761 159.515 209.799 159.477L215.41 153.865Z" fill="#262626"/>
<path fill-rule="evenodd" clip-rule="evenodd" d="M259.531 241.711C255.886 243.676 252.463 246.198 249.387 249.274C247.153 251.513 245.416 253.768 244.203 255.53C243.418 256.673 242.398 257.634 241.212 258.348C243.181 261.543 245.55 264.561 248.318 267.328C250.838 269.844 253.376 271.798 255.359 273.163C255.661 273.37 255.952 273.592 256.23 273.828C259.875 271.863 263.298 269.341 266.374 266.265C268.609 264.026 270.345 261.771 271.558 260.009C272.343 258.866 273.363 257.906 274.548 257.191C272.579 253.996 270.21 250.978 267.442 248.21C264.922 245.695 262.384 243.74 260.401 242.375C260.099 242.168 259.809 241.946 259.531 241.711ZM261.158 323.832C229.99 332.836 195.144 324.945 170.772 300.708C170.7 300.641 170.621 300.563 170.548 300.49L158.189 288.131L152.795 293.526C133.711 312.609 133.113 343.683 152.008 362.953C171.091 382.413 202.455 382.529 221.684 363.3L261.158 323.832ZM120.472 248.808C94.3727 212.872 97.5165 162.16 129.893 129.784C165.102 94.5693 213.995 85.9165 249.695 119.581L255.557 113.719C295.915 73.3605 361.576 73.366 401.929 113.719C442.287 154.071 442.287 219.739 401.928 260.09L395.288 266.73C421.388 302.666 418.244 353.379 385.868 385.755C350.659 420.97 301.768 429.62 266.069 395.955L260.204 401.82C219.846 442.178 154.185 442.173 113.832 401.82C73.4738 361.468 73.4738 295.8 113.832 255.448L120.472 248.808ZM300.354 361.67C316.716 375.658 335.015 367.838 351.335 351.836C368.626 334.88 368.728 307.014 351.644 289.929L335.939 274.222C338.373 303.506 328.352 333.542 306.207 355.81C306.133 355.892 306.044 355.98 305.962 356.062L300.354 361.67ZM357.57 227.408L345.212 215.049L345.212 215.049C345.139 214.977 345.061 214.898 344.988 214.832C320.616 190.594 285.769 182.704 254.6 191.708L294.076 152.238C313.305 133.01 344.669 133.125 363.752 152.586C382.647 171.856 382.05 202.929 362.965 222.013L357.57 227.408ZM215.41 153.865C199.048 139.878 180.746 147.701 164.426 163.703C147.136 180.658 147.033 208.525 164.117 225.61L179.822 241.316C177.389 212.033 187.409 181.997 209.553 159.729C209.594 159.685 209.639 159.638 209.684 159.592C209.722 159.553 209.761 159.515 209.799 159.477L215.41 153.865Z" fill="url(#paint0_linear_12_151)"/>
</g>
</g>
<defs>
<filter id="filter0_d_12_151" x="-21.4366" y="-51.5478" width="576.634" height="576.635" filterUnits="userSpaceOnUse" color-interpolation-filters="sRGB">
<feFlood flood-opacity="0" result="BackgroundImageFix"/>
<feColorMatrix in="SourceAlpha" type="matrix" values="0 0 0 0 0 0 0 0 0 0 0 0 0 0 0 0 0 0 127 0" result="hardAlpha"/>
<feOffset dx="9" dy="-21"/>
<feGaussianBlur stdDeviation="57"/>
<feComposite in2="hardAlpha" operator="out"/>
<feColorMatrix type="matrix" values="0 0 0 0 1 0 0 0 0 0 0 0 0 0 0.78 0 0 0 0.3 0"/>
<feBlend mode="normal" in2="BackgroundImageFix" result="effect1_dropShadow_12_151"/>
<feBlend mode="normal" in="SourceGraphic" in2="effect1_dropShadow_12_151" result="shape"/>
</filter>
<linearGradient id="paint0_linear_12_151" x1="376.227" y1="129.534" x2="154.544" y2="381.109" gradientUnits="userSpaceOnUse">
<stop stop-color="#FB2EFF"/>
<stop offset="1" stop-color="#600062" stop-opacity="0.5"/>
</linearGradient>
</defs>
</svg>
