<svg width="285" height="104" viewBox="0 0 285 104" fill="none" xmlns="http://www.w3.org/2000/svg">
<path d="M97.6308 64.0597C93.7868 64.0597 90.1288 62.8507 87.4628 60.4637L90.8108 56.4647C92.9498 58.1697 95.3368 59.0687 97.8478 59.0687C99.4598 59.0687 100.328 58.5107 100.328 57.5807V57.5187C100.328 56.6197 99.6148 56.1237 96.6698 55.4417C92.0508 54.3877 88.4858 53.0857 88.4858 48.6217V48.5597C88.4858 44.5297 91.6788 41.6157 96.8868 41.6157C100.576 41.6157 103.459 42.6077 105.815 44.4987L102.808 48.7457C100.824 47.3507 98.6538 46.6067 96.7318 46.6067C95.2748 46.6067 94.5618 47.2267 94.5618 48.0017V48.0637C94.5618 49.0557 95.3058 49.4897 98.3128 50.1717C103.304 51.2567 106.404 52.8687 106.404 56.9297V56.9917C106.404 61.4247 102.901 64.0597 97.6308 64.0597ZM117.543 64.0907C112.18 64.0907 108.305 60.1537 108.305 55.3797V55.3177C108.305 50.5437 112.211 46.5447 117.605 46.5447C122.968 46.5447 126.843 50.4817 126.843 55.2557V55.3177C126.843 60.0917 122.937 64.0907 117.543 64.0907ZM117.605 59.0997C119.744 59.0997 121.108 57.3947 121.108 55.3797V55.3177C121.108 53.2717 119.62 51.5357 117.543 51.5357C115.404 51.5357 114.04 53.2407 114.04 55.2557V55.3177C114.04 57.3637 115.528 59.0997 117.605 59.0997ZM137.422 64.0907C132.369 64.0907 128.649 60.1227 128.649 55.3797V55.3177C128.649 50.5747 132.338 46.5757 137.639 46.5757C141.08 46.5757 143.374 48.0637 144.8 50.3267L140.801 53.3027C139.995 52.1867 139.096 51.5357 137.67 51.5357C135.779 51.5357 134.384 53.2097 134.384 55.2557V55.3177C134.384 57.4877 135.748 59.1307 137.732 59.1307C139.127 59.1307 140.026 58.4797 140.956 57.3947L144.893 60.2467C143.343 62.5407 141.111 64.0907 137.422 64.0907ZM146.981 45.3977V41.0577H153.119V45.3977H146.981ZM147.105 63.6877V46.9167H152.995V63.6877H147.105ZM161.08 64.0597C157.887 64.0597 155.438 62.2307 155.438 58.8827V58.8207C155.438 55.3487 158.073 53.5507 162.01 53.5507C163.56 53.5507 165.079 53.8607 166.04 54.2017V53.9227C166.04 52.1867 164.955 51.1947 162.692 51.1947C160.925 51.1947 159.561 51.5357 158.073 52.1247L156.864 47.9707C158.755 47.1957 160.77 46.6687 163.653 46.6687C166.66 46.6687 168.706 47.3817 170.039 48.7147C171.31 49.9547 171.837 51.6907 171.837 54.0467V63.6877H166.009V61.9517C164.862 63.2227 163.281 64.0597 161.08 64.0597ZM163.188 60.3707C164.893 60.3707 166.102 59.2857 166.102 57.6117V56.8367C165.513 56.5887 164.676 56.4027 163.808 56.4027C162.103 56.4027 161.111 57.2397 161.111 58.4797V58.5417C161.111 59.6887 161.979 60.3707 163.188 60.3707ZM174.956 63.6877V41.0577H180.846V63.6877H174.956ZM192.992 64.0597C189.148 64.0597 185.49 62.8507 182.824 60.4637L186.172 56.4647C188.311 58.1697 190.698 59.0687 193.209 59.0687C194.821 59.0687 195.689 58.5107 195.689 57.5807V57.5187C195.689 56.6197 194.976 56.1237 192.031 55.4417C187.412 54.3877 183.847 53.0857 183.847 48.6217V48.5597C183.847 44.5297 187.04 41.6157 192.248 41.6157C195.937 41.6157 198.82 42.6077 201.176 44.4987L198.169 48.7457C196.185 47.3507 194.015 46.6067 192.093 46.6067C190.636 46.6067 189.923 47.2267 189.923 48.0017V48.0637C189.923 49.0557 190.667 49.4897 193.674 50.1717C198.665 51.2567 201.765 52.8687 201.765 56.9297V56.9917C201.765 61.4247 198.262 64.0597 192.992 64.0597ZM204.349 63.6877V46.9167H210.239V49.2727C211.324 47.8777 212.874 46.5447 215.261 46.5447C218.826 46.5447 220.965 48.9007 220.965 52.7137V63.6877H215.075V54.6047C215.075 52.7757 214.114 51.7837 212.719 51.7837C211.293 51.7837 210.239 52.7757 210.239 54.6047V63.6877H204.349ZM228.801 64.0597C225.608 64.0597 223.159 62.2307 223.159 58.8827V58.8207C223.159 55.3487 225.794 53.5507 229.731 53.5507C231.281 53.5507 232.8 53.8607 233.761 54.2017V53.9227C233.761 52.1867 232.676 51.1947 230.413 51.1947C228.646 51.1947 227.282 51.5357 225.794 52.1247L224.585 47.9707C226.476 47.1957 228.491 46.6687 231.374 46.6687C234.381 46.6687 236.427 47.3817 237.76 48.7147C239.031 49.9547 239.558 51.6907 239.558 54.0467V63.6877H233.73V61.9517C232.583 63.2227 231.002 64.0597 228.801 64.0597ZM230.909 60.3707C232.614 60.3707 233.823 59.2857 233.823 57.6117V56.8367C233.234 56.5887 232.397 56.4027 231.529 56.4027C229.824 56.4027 228.832 57.2397 228.832 58.4797V58.5417C228.832 59.6887 229.7 60.3707 230.909 60.3707ZM242.554 68.6477V46.9167H248.444V49.1487C249.591 47.7537 251.017 46.5447 253.528 46.5447C257.527 46.5447 260.968 49.8617 260.968 55.2247V55.2867C260.968 60.7427 257.527 64.0597 253.559 64.0597C251.017 64.0597 249.529 62.9127 248.444 61.6417V68.6477H242.554ZM251.73 59.1307C253.652 59.1307 255.171 57.5807 255.171 55.3177V55.2557C255.171 53.0547 253.652 51.4737 251.73 51.4737C249.839 51.4737 248.32 53.0547 248.32 55.2557V55.3177C248.32 57.5497 249.839 59.1307 251.73 59.1307Z" fill="#262626"/>
<path d="M57.9307 57.9858C52.5962 63.3148 44.0436 63.2417 38.7909 58.0179C38.7802 58.0081 38.7686 57.9965 38.7579 57.9858L32.7642 51.9921C27.4778 46.7057 27.4785 38.105 32.7642 32.8194C38.0497 27.5329 45.427 26.3068 50.7126 31.5933L54.0221 34.9028C54.8998 35.7805 54.3165 37.2919 53.0762 37.3372C51.4955 37.395 49.9074 37.6785 48.3739 38.2015C47.8546 38.3786 47.2802 38.2521 46.8922 37.8641L45.7249 36.6968C43.2252 34.1971 40.3794 35.3448 37.8553 37.8199C35.3063 40.3194 35.2911 44.4278 37.8098 46.9465L43.8026 52.9402C46.317 55.4546 50.3812 55.4441 52.8851 52.9402C53.2145 52.6101 53.4705 52.2776 53.6494 52.0179C53.7755 51.8342 53.9429 51.6824 54.1381 51.5749C54.3333 51.4673 54.551 51.4068 54.7737 51.3983C55.7162 51.363 56.6874 51.6969 57.4322 52.4416L59.3101 54.3195C59.8025 54.8119 59.863 55.5844 59.4645 56.1554C59.0079 56.8094 58.4946 57.4219 57.9307 57.9858ZM70.5016 70.5561C75.7873 65.2705 75.788 56.6698 70.5016 51.3834L64.5079 45.3897C64.4972 45.379 64.4856 45.3674 64.4749 45.3576C59.2222 40.1339 50.6696 40.0607 45.3351 45.3897C44.7712 45.9536 44.258 46.5661 43.8014 47.22C43.4029 47.791 43.4634 48.5636 43.9558 49.0559L45.8337 50.9338C46.5785 51.6785 47.5497 52.0125 48.4922 51.9771C48.7149 51.9686 48.9326 51.9081 49.1278 51.8006C49.323 51.693 49.4904 51.5413 49.6165 51.3575C49.7954 51.0978 50.0513 50.7653 50.3808 50.4352C52.8847 47.9313 56.9488 47.9208 59.4633 50.4352L65.4561 56.4289C67.9748 58.9476 67.9596 63.0559 65.4106 65.5555C62.8865 68.0306 60.0411 69.1779 57.5414 66.6781L56.3741 65.5108C55.9862 65.1229 55.4118 64.9963 54.8925 65.1734C53.3589 65.6965 51.7708 65.9799 50.1902 66.0377C48.9499 66.0831 48.3665 67.5945 49.2442 68.4721L52.5538 71.7817C57.8392 77.0682 65.2161 75.8426 70.5016 70.5561Z" fill="#262626"/>
<path d="M58.7214 44.5995C64.7192 50.6035 64.6369 60.2295 58.7575 66.1414C58.7465 66.1535 58.7334 66.1665 58.7214 66.1786L51.9754 72.9245C46.0256 78.8744 36.3454 78.8736 30.3964 72.9245C24.4465 66.9756 24.4465 57.2944 30.3964 51.3455L34.1214 47.6206C35.1092 46.6328 36.8103 47.2893 36.8613 48.6853C36.9264 50.4643 37.2454 52.2517 37.834 53.9777C38.0334 54.5622 37.891 55.2087 37.4543 55.6453L36.1405 56.9591C33.3271 59.7725 33.2389 64.3535 36.0246 67.1945C38.8378 70.0634 43.4618 70.0805 46.2966 67.2457L53.0426 60.5007C55.8725 57.6707 55.8607 53.0965 53.0426 50.2784C52.671 49.9076 52.2968 49.6195 52.0045 49.4182C51.7977 49.2762 51.6269 49.0878 51.5058 48.8681C51.3847 48.6484 51.3167 48.4034 51.3071 48.1527C51.2673 47.0919 51.6432 45.9988 52.4814 45.1606L54.5949 43.047C55.1492 42.4927 56.0186 42.4247 56.6613 42.8732C57.3973 43.3871 58.0866 43.9648 58.7214 44.5995ZM72.8693 30.4509C66.9203 24.5018 57.2402 24.501 51.2903 30.4509L44.5444 37.1969C44.5323 37.2089 44.5193 37.222 44.5082 37.234C38.629 43.1459 38.5466 52.7719 44.5444 58.7759C45.1791 59.4106 45.8684 59.9882 46.6044 60.5021C47.2471 60.9506 48.1166 60.8825 48.6707 60.3283L50.7843 58.2147C51.6225 57.3765 51.9983 56.2834 51.9586 55.2226C51.949 54.9719 51.8809 54.727 51.7598 54.5072C51.6388 54.2875 51.468 54.0991 51.2612 53.9571C50.9689 53.7559 50.5946 53.4678 50.2231 53.0969C47.405 50.2788 47.3931 45.7046 50.2231 42.8746L56.9691 36.1297C59.8039 33.2949 64.4277 33.3119 67.2411 36.1809C70.0268 39.0218 69.9386 43.6028 67.1251 46.4162L65.8114 47.73C65.3747 48.1667 65.2322 48.8132 65.4316 49.3976C66.0203 51.1236 66.3393 52.911 66.4044 54.6901C66.4554 56.086 68.1565 56.7426 69.1443 55.7548L72.8692 52.0298C78.8192 46.081 78.8192 36.3998 72.8693 30.4509Z" fill="#262626"/>
</svg>
