<svg width="790" height="220" viewBox="0 0 790 220" fill="none" xmlns="http://www.w3.org/2000/svg">
<path d="M543.894 138.954V66.6841H562.704V138.954H543.894Z" fill="#111111"/>
<path d="M499.579 140.142C489.382 140.142 481.561 134.301 481.561 123.609V123.411C481.561 112.323 489.976 106.581 502.549 106.581C507.499 106.581 512.35 107.571 515.419 108.66V107.769C515.419 102.225 511.954 99.0571 504.727 99.0571C499.084 99.0571 494.728 100.146 489.976 102.027L486.115 88.7611C492.154 86.2861 498.589 84.6031 507.796 84.6031C517.399 84.6031 523.933 86.8801 528.19 91.1371C532.249 95.0971 533.932 100.641 533.932 108.165V138.954H515.32V133.41C511.657 137.469 506.608 140.142 499.579 140.142ZM506.311 128.361C511.756 128.361 515.617 124.896 515.617 119.55V117.075C513.736 116.283 511.063 115.689 508.291 115.689C502.846 115.689 499.678 118.362 499.678 122.322V122.52C499.678 126.183 502.45 128.361 506.311 128.361Z" fill="#111111"/>
<path d="M454.553 80.5441V66.6841H474.155V80.5441H454.553ZM454.949 138.954V85.3951H473.759V138.954H454.949Z" fill="#111111"/>
<path d="M424.028 140.241C407.891 140.241 396.011 127.569 396.011 112.422V112.224C396.011 97.0771 407.792 84.3061 424.721 84.3061C435.71 84.3061 443.036 89.0581 447.59 96.2851L434.819 105.789C432.245 102.225 429.374 100.146 424.82 100.146C418.781 100.146 414.326 105.492 414.326 112.026V112.224C414.326 119.154 418.682 124.401 425.018 124.401C429.473 124.401 432.344 122.322 435.314 118.857L447.887 127.965C442.937 135.291 435.809 140.241 424.028 140.241Z" fill="#111111"/>
<path d="M360.544 140.241C343.417 140.241 331.042 127.668 331.042 112.422V112.224C331.042 96.9781 343.516 84.2071 360.742 84.2071C377.869 84.2071 390.244 96.7801 390.244 112.026V112.224C390.244 127.47 377.77 140.241 360.544 140.241ZM360.742 124.302C367.573 124.302 371.929 118.857 371.929 112.422V112.224C371.929 105.69 367.177 100.146 360.544 100.146C353.713 100.146 349.357 105.591 349.357 112.026V112.224C349.357 118.758 354.109 124.302 360.742 124.302Z" fill="#111111"/>
<path d="M296.952 140.142C284.676 140.142 272.994 136.281 264.48 128.658L275.172 115.887C282.003 121.332 289.626 124.203 297.645 124.203C302.793 124.203 305.565 122.421 305.565 119.451V119.253C305.565 116.382 303.288 114.798 293.883 112.62C279.132 109.254 267.747 105.096 267.747 90.8401V90.6421C267.747 77.7721 277.944 68.4661 294.576 68.4661C306.357 68.4661 315.564 71.6341 323.088 77.6731L313.485 91.2361C307.149 86.7811 300.219 84.4051 294.081 84.4051C289.428 84.4051 287.151 86.3851 287.151 88.8601V89.0581C287.151 92.2261 289.527 93.6121 299.13 95.7901C315.069 99.2551 324.969 104.403 324.969 117.372V117.57C324.969 131.727 313.782 140.142 296.952 140.142Z" fill="#111111"/>
<path d="M730.646 153.044V85.3951H749.456V92.5231C753.119 88.0681 757.673 84.2071 765.692 84.2071C778.463 84.2071 789.452 94.8001 789.452 111.927V112.125C789.452 129.549 778.463 140.142 765.791 140.142C757.673 140.142 752.921 136.479 749.456 132.42V153.044H730.646ZM759.95 124.401C766.088 124.401 770.939 119.451 770.939 112.224V112.026C770.939 104.997 766.088 99.9481 759.95 99.9481C753.911 99.9481 749.06 104.997 749.06 112.026V112.224C749.06 119.352 753.911 124.401 759.95 124.401Z" fill="url(#paint0_linear_12_188)"/>
<path d="M700.965 80.5441V66.6841H720.567V80.5441H700.965ZM701.361 138.954V85.3951H720.171V138.954H701.361Z" fill="url(#paint1_linear_12_188)"/>
<path d="M638.22 138.954V85.3951H657.03V92.9191C660.495 88.4641 665.445 84.2071 673.068 84.2071C684.453 84.2071 691.284 91.7311 691.284 103.908V138.954H672.474V109.947C672.474 104.106 669.405 100.938 664.95 100.938C660.396 100.938 657.03 104.106 657.03 109.947V138.954H638.22Z" fill="url(#paint2_linear_12_188)"/>
<path d="M601.952 140.142C589.676 140.142 577.994 136.281 569.48 128.658L580.172 115.887C587.003 121.332 594.626 124.203 602.645 124.203C607.793 124.203 610.565 122.421 610.565 119.451V119.253C610.565 116.382 608.288 114.798 598.883 112.62C584.132 109.254 572.747 105.096 572.747 90.8401V90.6421C572.747 77.7721 582.944 68.4661 599.576 68.4661C611.357 68.4661 620.564 71.6341 628.088 77.6731L618.485 91.2361C612.149 86.7811 605.219 84.4051 599.081 84.4051C594.428 84.4051 592.151 86.3851 592.151 88.8601V89.0581C592.151 92.2261 594.527 93.6121 604.13 95.7901C620.069 99.2551 629.969 104.403 629.969 117.372V117.57C629.969 131.727 618.782 140.142 601.952 140.142Z" fill="url(#paint3_linear_12_188)"/>
<rect x="0.44043" y="0.574127" width="218.58" height="218.58" rx="24" fill="#111111"/>
<mask id="mask0_12_188" style="mask-type:alpha" maskUnits="userSpaceOnUse" x="0" y="0" width="220" height="220">
<rect x="0.44043" y="0.574127" width="218.58" height="218.58" rx="24" fill="#262626"/>
</mask>
<g mask="url(#mask0_12_188)">
<g filter="url(#filter0_d_12_188)">
<path fill-rule="evenodd" clip-rule="evenodd" d="M110.431 103.045C108.884 103.88 107.43 104.95 106.124 106.257C105.175 107.207 104.438 108.165 103.923 108.913C103.589 109.399 103.156 109.806 102.653 110.11C103.489 111.466 104.495 112.748 105.67 113.923C106.74 114.991 107.818 115.821 108.66 116.401C108.788 116.489 108.911 116.583 109.03 116.683C110.577 115.848 112.031 114.778 113.337 113.472C114.286 112.521 115.023 111.563 115.538 110.815C115.872 110.33 116.305 109.922 116.808 109.619C115.972 108.262 114.966 106.98 113.791 105.805C112.721 104.737 111.643 103.907 110.801 103.327C110.673 103.239 110.549 103.145 110.431 103.045ZM111.122 137.916C97.8873 141.739 83.091 138.389 72.742 128.097C72.7112 128.069 72.6778 128.035 72.6469 128.004L67.399 122.756L65.1083 125.047C57.0048 133.151 56.7507 146.345 64.7743 154.528C72.8772 162.791 86.1955 162.84 94.3605 154.675L111.122 137.916ZM51.3831 106.059C40.3007 90.7995 41.6356 69.2657 55.3834 55.5181C70.3342 40.5649 91.0956 36.8907 106.255 51.1854L108.744 48.6964C125.881 31.5591 153.762 31.5614 170.897 48.6964C188.034 65.8308 188.034 93.7154 170.897 110.85L168.077 113.669C179.16 128.929 177.825 150.463 164.077 164.21C149.127 179.164 128.366 182.836 113.208 168.541L110.717 171.032C93.5798 188.169 65.6984 188.167 48.5637 171.032C31.4264 153.897 31.4264 126.013 48.5637 108.878L51.3831 106.059ZM127.766 153.983C134.713 159.923 142.484 156.602 149.414 149.807C156.756 142.608 156.799 130.775 149.545 123.52L142.876 116.85C143.91 129.285 139.655 142.039 130.251 151.495C130.244 151.503 130.237 151.511 130.229 151.519C130.203 151.546 130.174 151.575 130.147 151.602L127.766 153.983ZM152.061 96.9717L146.814 91.7241C146.783 91.6932 146.75 91.6598 146.719 91.6316C136.369 81.3395 121.573 77.9892 108.338 81.8127L125.1 65.0527C133.265 56.8877 146.583 56.9369 154.686 65.2002C162.71 73.3828 162.456 86.5774 154.352 94.6808L152.061 96.9717ZM91.6965 65.7436C84.7488 59.8043 76.9771 63.1259 70.0472 69.9211C62.7053 77.1204 62.6616 88.9537 69.9161 96.2082L76.5847 102.878C75.5515 90.4431 79.8063 77.6891 89.2095 68.2335C89.2413 68.1988 89.2789 68.1613 89.3136 68.1266L91.6965 65.7436Z" fill="#262626"/>
<path fill-rule="evenodd" clip-rule="evenodd" d="M110.431 103.045C108.884 103.88 107.43 104.95 106.124 106.257C105.175 107.207 104.438 108.165 103.923 108.913C103.589 109.399 103.156 109.806 102.653 110.11C103.489 111.466 104.495 112.748 105.67 113.923C106.74 114.991 107.818 115.821 108.66 116.401C108.788 116.489 108.911 116.583 109.03 116.683C110.577 115.848 112.031 114.778 113.337 113.472C114.286 112.521 115.023 111.563 115.538 110.815C115.872 110.33 116.305 109.922 116.808 109.619C115.972 108.262 114.966 106.98 113.791 105.805C112.721 104.737 111.643 103.907 110.801 103.327C110.673 103.239 110.549 103.145 110.431 103.045ZM111.122 137.916C97.8873 141.739 83.091 138.389 72.742 128.097C72.7112 128.069 72.6778 128.035 72.6469 128.004L67.399 122.756L65.1083 125.047C57.0048 133.151 56.7507 146.345 64.7743 154.528C72.8772 162.791 86.1955 162.84 94.3605 154.675L111.122 137.916ZM51.3831 106.059C40.3007 90.7995 41.6356 69.2657 55.3834 55.5181C70.3342 40.5649 91.0956 36.8907 106.255 51.1854L108.744 48.6964C125.881 31.5591 153.762 31.5614 170.897 48.6964C188.034 65.8308 188.034 93.7154 170.897 110.85L168.077 113.669C179.16 128.929 177.825 150.463 164.077 164.21C149.127 179.164 128.366 182.836 113.208 168.541L110.717 171.032C93.5798 188.169 65.6984 188.167 48.5637 171.032C31.4264 153.897 31.4264 126.013 48.5637 108.878L51.3831 106.059ZM127.766 153.983C134.713 159.923 142.484 156.602 149.414 149.807C156.756 142.608 156.799 130.775 149.545 123.52L142.876 116.85C143.91 129.285 139.655 142.039 130.251 151.495C130.244 151.503 130.237 151.511 130.229 151.519C130.203 151.546 130.174 151.575 130.147 151.602L127.766 153.983ZM152.061 96.9717L146.814 91.7241C146.783 91.6932 146.75 91.6598 146.719 91.6316C136.369 81.3395 121.573 77.9892 108.338 81.8127L125.1 65.0527C133.265 56.8877 146.583 56.9369 154.686 65.2002C162.71 73.3828 162.456 86.5774 154.352 94.6808L152.061 96.9717ZM91.6965 65.7436C84.7488 59.8043 76.9771 63.1259 70.0472 69.9211C62.7053 77.1204 62.6616 88.9537 69.9161 96.2082L76.5847 102.878C75.5515 90.4431 79.8063 77.6891 89.2095 68.2335C89.2413 68.1988 89.2789 68.1613 89.3136 68.1266L91.6965 65.7436Z" fill="url(#paint4_linear_12_188)"/>
</g>
</g>
<defs>
<filter id="filter0_d_12_188" x="-69.2892" y="-99.1557" width="376.039" height="376.04" filterUnits="userSpaceOnUse" color-interpolation-filters="sRGB">
<feFlood flood-opacity="0" result="BackgroundImageFix"/>
<feColorMatrix in="SourceAlpha" type="matrix" values="0 0 0 0 0 0 0 0 0 0 0 0 0 0 0 0 0 0 127 0" result="hardAlpha"/>
<feOffset dx="9" dy="-21"/>
<feGaussianBlur stdDeviation="57"/>
<feComposite in2="hardAlpha" operator="out"/>
<feColorMatrix type="matrix" values="0 0 0 0 1 0 0 0 0 0 0 0 0 0 0.78 0 0 0 0.3 0"/>
<feBlend mode="normal" in2="BackgroundImageFix" result="effect1_dropShadow_12_188"/>
<feBlend mode="normal" in="SourceGraphic" in2="effect1_dropShadow_12_188" result="shape"/>
</filter>
<linearGradient id="paint0_linear_12_188" x1="727.549" y1="80.1116" x2="718.016" y2="246.222" gradientUnits="userSpaceOnUse">
<stop stop-color="#FB2EFF"/>
<stop offset="1" stop-color="#600062" stop-opacity="0.5"/>
</linearGradient>
<linearGradient id="paint1_linear_12_188" x1="727.549" y1="80.1116" x2="718.016" y2="246.222" gradientUnits="userSpaceOnUse">
<stop stop-color="#FB2EFF"/>
<stop offset="1" stop-color="#600062" stop-opacity="0.5"/>
</linearGradient>
<linearGradient id="paint2_linear_12_188" x1="727.549" y1="80.1116" x2="718.016" y2="246.222" gradientUnits="userSpaceOnUse">
<stop stop-color="#FB2EFF"/>
<stop offset="1" stop-color="#600062" stop-opacity="0.5"/>
</linearGradient>
<linearGradient id="paint3_linear_12_188" x1="727.549" y1="80.1116" x2="718.016" y2="246.222" gradientUnits="userSpaceOnUse">
<stop stop-color="#FB2EFF"/>
<stop offset="1" stop-color="#600062" stop-opacity="0.5"/>
</linearGradient>
<linearGradient id="paint4_linear_12_188" x1="159.983" y1="55.4119" x2="65.851" y2="162.237" gradientUnits="userSpaceOnUse">
<stop stop-color="#FB2EFF"/>
<stop offset="1" stop-color="#600062" stop-opacity="0.5"/>
</linearGradient>
</defs>
</svg>
